<svg width="92" height="36" viewBox="0 0 92 36" fill="none" xmlns="http://www.w3.org/2000/svg">
<path d="M17.3072 10.1077C17.8443 9.95295 18.7552 9.99237 19.3487 9.9703C19.7614 10.7316 19.2818 13.018 20.107 13.2033C20.4397 13.2523 21.0801 13.0522 21.1533 12.6235C21.1107 11.9574 20.964 10.9425 20.9324 10.3057C20.8309 8.32421 20.4943 6.57142 20.4844 4.38843C20.4902 3.53033 20.5905 2.97779 19.8174 2.96692C18.8354 2.93409 18.5191 4.33671 18.0422 5.25791C17.0898 7.08638 16.1514 8.91631 15.2723 10.851C15.0863 11.2819 14.7786 11.7986 14.7911 12.0815C14.8058 12.4772 15.5658 12.8808 16.0472 12.4528C16.4538 11.9324 17.0743 10.7166 17.3072 10.1077ZM19.0997 6.31223C19.2625 6.63903 19.3294 8.01154 19.2569 8.56701C19.0584 8.71507 18.3058 8.77674 17.9958 8.64562C18.1496 7.98608 18.6909 6.71973 18.9744 6.29906C19.0162 6.30345 19.058 6.30784 19.0997 6.31223ZM24.4672 3.2304C23.4897 3.42328 23.4247 4.97901 23.2058 6.1244C22.891 7.78057 22.5936 9.00218 22.2187 10.6943C22.0789 11.3553 21.457 13.1199 21.9026 13.4342C22.28 13.7273 22.9212 13.3864 23.1351 12.9584C23.2772 12.6778 23.532 11.5925 23.6162 11.1931C24.0124 9.16537 24.4239 7.39268 24.801 5.27851C24.9569 4.46435 25.4726 3.04045 24.4672 3.2304ZM27.3634 3.5348C26.3859 3.72768 26.3209 5.28341 26.102 6.4288C25.7871 8.08496 25.4898 9.30658 25.1149 10.9987C24.975 11.6597 24.3532 13.4243 24.7987 13.7386C25.1762 14.0317 25.8173 13.6908 26.0312 13.2628C26.1733 12.9822 26.4282 11.8969 26.5124 11.4975C26.9085 9.46977 27.3201 7.69707 27.6971 5.58291C27.8531 4.76875 28.3687 3.34485 27.3634 3.5348ZM33.9471 7.64752C33.8365 7.49512 33.6225 7.38816 33.4122 7.38013C32.6574 7.32896 32.6325 7.83312 32.3989 8.85028C32.1551 9.96489 31.9158 11.8402 31.6983 12.9716C31.6258 13.2596 31.5364 13.574 31.5746 13.7469C31.6266 13.9213 31.9015 14.1191 32.1088 14.155C32.635 14.2385 32.9025 14.2384 33.0915 13.7797C33.32 13.2125 33.4714 11.6377 33.582 10.9877C33.6069 10.751 34.621 10.21 35.2094 10.1029C35.4549 10.0443 36.0697 9.95402 36.3694 9.91514C36.6552 9.87479 37.204 9.6087 37.179 9.04298C37.1511 8.77259 36.8359 8.55646 36.5465 8.49788C36.0526 8.37559 35.4583 8.53836 35.0677 8.63808C34.705 8.74073 34.1848 9.13652 33.8484 8.98855C33.9246 8.53201 34.0505 8.13701 33.9471 7.64752ZM38.9313 12.8309C39.2772 12.7546 39.8656 12.6476 40.3104 12.5676C40.9699 12.4539 41.3106 12.2927 41.9606 12.1357C42.3497 12.0499 42.664 11.6044 42.6757 11.2255C42.702 10.9749 42.5656 10.3975 42.4857 10.2201C42.0348 8.75096 40.9355 8.22718 39.5213 8.55716C38.9468 8.66571 38.2632 9.14286 37.8632 9.73429C37.3532 10.3001 37.1079 11.1612 37.2466 12.3864C37.5025 13.5676 37.8221 14.0094 38.9016 14.5874C39.5722 15.038 40.9557 15.0004 41.7199 14.5599C41.9771 14.3898 42.0921 13.9655 41.8194 13.6131C41.324 13.2372 40.8551 13.9481 39.9427 13.6551C39.3433 13.4654 38.9944 13.3021 38.9313 12.8309ZM39.2079 10.1994C40.1597 9.58151 40.9893 9.725 41.2401 10.8212C41.1456 11.0506 40.7169 11.2449 40.3894 11.2808C39.8918 11.3271 39.0132 11.5163 38.767 11.4482C38.6819 11.1858 38.8152 10.4537 39.2079 10.1994ZM46.2012 8.9214C45.4406 8.92592 44.7195 9.08944 44.1539 9.64938C43.9326 9.87952 43.7986 10.4848 43.7884 10.8498C43.7687 11.4389 44.3052 11.9599 44.742 12.3577C45.1026 12.6771 45.9982 13.264 45.8517 13.8539C44.8963 14.9078 44.4675 13.7647 43.6819 14.0059C43.5368 14.047 43.3537 14.1826 43.3127 14.305C43.1127 15.0019 43.2886 15.2034 44.4443 15.5923C44.9338 15.7564 45.7113 15.7255 46.129 15.5019C46.71 15.197 47.217 14.659 47.3254 13.8962C47.4615 12.8688 46.6458 12.1918 46.1218 11.6862C46.0067 11.5756 45.3207 11.1375 45.3896 10.7506C45.4642 10.308 45.923 10.2295 46.6668 10.5188C46.9321 10.6734 47.5213 11.228 47.8232 11.0345C47.9712 10.9656 48.3068 10.7193 48.3031 10.3529C48.2986 9.85978 47.7922 9.45462 47.2587 9.17331C46.9919 9.03266 46.2723 8.91479 46.2012 8.9214ZM50.6383 14.0614C50.9842 13.9851 51.5726 13.878 52.0174 13.7981C52.6769 13.6844 53.0176 13.5231 53.6676 13.3662C54.0567 13.2804 54.371 12.8348 54.3827 12.456C54.409 12.2053 54.2726 11.6279 54.1927 11.4506C53.7418 9.98141 52.6425 9.45764 51.2283 9.78762C50.6538 9.89616 49.9702 10.3733 49.5702 10.9647C49.0602 11.5305 48.8149 12.3916 48.9536 13.6168C49.2095 14.798 49.5291 15.2399 50.6086 15.8179C51.2792 16.2684 52.6627 16.2308 53.4269 15.7903C53.6841 15.6203 53.7991 15.196 53.5264 14.8435C53.031 14.4677 52.5621 15.1786 51.6497 14.8856C51.0503 14.6959 50.7014 14.5325 50.6383 14.0614ZM50.9149 11.4299C51.8667 10.812 52.6963 10.9555 52.9471 12.0517C52.8526 12.2811 52.4239 12.4753 52.0964 12.5113C51.5988 12.5575 50.7202 12.7467 50.474 12.6786C50.3889 12.4163 50.5222 11.6842 50.9149 11.4299ZM56.374 11.6235C56.8847 11.7195 57.5354 11.1544 58.5972 11.097C58.913 11.1725 59.3103 11.9462 58.9125 12.3831C58.6605 12.6381 57.4718 12.4287 56.7676 12.5659C56.3646 12.6502 55.8466 12.8914 55.6311 13.0658C55.2926 13.3399 54.8794 13.7892 54.955 14.5432C54.9631 14.8678 55.2109 15.1895 55.4381 15.4386C55.9819 16.1574 56.5821 16.4739 57.3699 16.8804C57.5964 17.0028 58.157 17.1603 58.3981 17.1434C58.7366 17.1367 59.1513 16.6735 59.2781 16.4053C59.5799 15.6769 59.7996 14.9257 60.0376 14.1343C60.2236 13.4359 60.5378 12.4553 60.4783 11.5482C60.4431 10.8124 60.0399 10.0944 59.5577 9.86068C58.701 9.57356 57.988 9.79424 57.064 10.1476C56.598 10.2957 56.0411 10.5046 56.0522 11.0689C56.0676 11.3239 56.1197 11.4983 56.374 11.6235ZM57.6853 13.7462C57.9513 13.7601 58.4877 13.7461 58.6526 13.9183C58.6014 14.4056 58.4572 15.3759 58.0138 15.4419C57.3558 15.2742 56.3562 14.8735 56.4271 14.0645C56.6652 13.808 57.1533 13.7185 57.6853 13.7462ZM63.3166 10.7344C63.2059 10.582 62.9919 10.475 62.7816 10.467C62.0268 10.4158 62.002 10.92 61.7684 11.9371C61.5246 13.0518 61.2852 14.927 61.0678 16.0585C60.9953 16.3465 60.9059 16.6609 60.944 16.8338C60.9961 17.0082 61.2709 17.206 61.4783 17.2419C62.0045 17.3253 62.2719 17.3253 62.4609 16.8665C62.6895 16.2993 62.8409 14.7245 62.9515 14.0745C62.9763 13.8378 63.9904 13.2968 64.5789 13.1898C64.8243 13.1311 65.4391 13.0409 65.7388 13.002C66.0246 12.9616 66.5735 12.6956 66.5484 12.1298C66.5206 11.8594 66.2054 11.6433 65.916 11.5847C65.422 11.4624 64.8278 11.6252 64.4372 11.7249C64.0745 11.8276 63.5543 12.2234 63.2179 12.0754C63.294 11.6189 63.42 11.2239 63.3166 10.7344ZM71.3674 16.9017C71.1306 16.0744 70.4697 16.4695 69.6643 16.4975C68.5761 16.5379 67.9693 15.8829 67.7991 15.0908C67.6415 14.3141 68.6086 13.4162 69.6243 13.3963C70.0046 13.394 70.3659 13.5728 70.848 13.539C71.2298 13.5228 71.6262 13.0999 71.558 12.5437C71.4839 12.0433 70.0666 11.8661 69.6152 11.875C68.4047 11.8745 67.3583 12.4543 66.7305 13.4722C66.4323 14.0321 66.187 14.8932 66.3146 15.5542C66.6673 16.8863 67.5797 17.7142 69.0109 17.8928C70.3028 18.0567 71.5742 17.6132 71.3674 16.9017ZM74.8132 12.4917C74.6725 12.491 74.9742 11.4951 75.1053 10.9176C75.1895 10.5182 75.5199 9.9195 75.3022 9.44615C75.1864 9.20875 74.8236 9.04392 74.4961 9.07988C73.8549 9.15326 73.7356 10.4217 73.557 11.318C73.3827 12.1724 73.2069 12.7734 73.0026 13.7795C72.6819 15.2239 72.4629 15.8344 72.1568 17.1395C71.9759 17.9229 71.9093 18.6901 72.5132 18.8381C73.383 18.9999 73.4547 18.3176 73.599 17.6149C73.8678 16.531 73.9087 15.8737 74.2354 14.9086C74.3973 14.5737 74.6273 14.26 74.9013 14.0635C75.1475 13.8642 75.4773 13.6736 75.9367 13.7219C76.1515 13.9556 75.929 15.537 75.9078 15.8727C75.7372 17.361 75.4678 18.5855 75.5946 18.8522C75.7214 19.119 76.3209 19.3087 76.6608 19.0206C77.0455 18.7091 77.1018 17.7719 77.18 16.8932C77.2678 16.0578 77.4362 14.9916 77.4662 14.305C77.5114 13.3384 77.3369 12.3206 76.7374 12.1309C75.9335 11.8775 75.5401 12.54 74.8132 12.4917ZM3.93328 18.556C3.17264 18.5605 2.4516 18.724 1.88597 19.284C1.6647 19.5141 1.5307 20.1194 1.52049 20.4843C1.5008 21.0735 2.03729 21.5944 2.4741 21.9923C2.83468 22.3117 3.73025 22.8985 3.58378 23.4885C2.62838 24.5424 2.19952 23.3993 1.414 23.6405C1.26892 23.6816 1.08574 23.8171 1.04472 23.9395C0.844779 24.6364 1.02068 24.8379 2.17636 25.2269C2.66589 25.3909 3.44338 25.36 3.86104 25.1365C4.44209 24.8315 4.9491 24.2936 5.05743 23.5307C5.19357 22.5033 4.37787 21.8264 3.85384 21.3208C3.73877 21.2102 3.05281 20.7721 3.12163 20.3852C3.19631 19.9425 3.65502 19.8641 4.39886 20.1534C4.66415 20.308 5.2534 20.8626 5.55529 20.6691C5.7033 20.6002 6.03888 20.3539 6.03516 19.9875C6.03068 19.4944 5.52426 19.0892 4.99074 18.8079C4.72398 18.6672 4.00436 18.5494 3.93328 18.556ZM10.4692 19.3978C10.4155 18.4349 10.7057 18.0853 10.8807 17.3576C11.0572 16.8835 11.1788 16.5302 10.4783 16.4988C9.37246 16.4389 9.38726 17.3696 9.17708 18.164C9.08773 18.4783 8.93031 19.3064 8.67605 19.4486C8.43718 19.5784 7.47793 19.4635 7.17823 19.5023C6.88805 19.5845 6.62209 19.8381 6.55252 20.0982C6.45802 20.3276 6.51012 20.7695 6.78641 20.9533C7.1697 21.1907 8.1897 20.8615 8.45796 21.2557C8.31739 22.0574 8.23615 22.6964 8.097 23.2167C8.05674 23.4659 7.77844 24.5065 7.71033 24.7527C7.65907 24.9726 7.2269 26.1378 7.28703 26.3693C7.364 26.5745 7.79638 26.7466 8.10708 26.7371C8.81349 26.7128 9.05947 25.1761 9.20669 24.7129C9.27772 24.4389 9.52964 23.3814 9.58675 23.1059C9.66365 22.7761 9.92647 21.213 10.2144 21.018C10.4885 20.8216 11.6199 21.0391 12.075 20.8616C12.3835 20.7392 12.593 20.353 12.5489 19.9683C12.4785 19.2993 10.7697 19.7531 10.4692 19.3978ZM14.1196 21.2596C14.6304 21.3555 15.281 20.7904 16.3429 20.7331C16.6587 20.8085 17.056 21.5823 16.6582 22.0191C16.4061 22.2741 15.2175 22.0647 14.5133 22.2019C14.1103 22.2862 13.5922 22.5274 13.3768 22.7018C13.0383 22.9759 12.6251 23.4252 12.7007 24.1792C12.7088 24.5039 12.9565 24.8255 13.1837 25.0746C13.7276 25.7934 14.3278 26.1099 15.1156 26.5165C15.3421 26.6388 15.9027 26.7963 16.1437 26.7794C16.4823 26.7727 16.897 26.3095 17.0237 26.0413C17.3255 25.3129 17.5452 24.5617 17.7833 23.7703C17.9693 23.0719 18.2835 22.0914 18.224 21.1842C18.1887 20.4484 17.7856 19.7304 17.3033 19.4967C16.4467 19.2096 15.7337 19.4302 14.8097 19.7836C14.3437 19.9317 13.7868 20.1406 13.7979 20.7049C13.8133 20.9599 13.8653 21.1343 14.1196 21.2596ZM15.4309 23.3822C15.6969 23.3961 16.2333 23.3821 16.3983 23.5543C16.347 24.0416 16.2028 25.0119 15.7595 25.0779C15.1014 24.9102 14.1018 24.5095 14.1728 23.7005C14.4109 23.444 14.8989 23.3545 15.4309 23.3822ZM21.0623 20.3704C20.9516 20.218 20.7376 20.111 20.5273 20.103C19.7725 20.0518 19.7477 20.556 19.5141 21.5731C19.2702 22.6878 19.0309 24.563 18.8134 25.6945C18.7409 25.9825 18.6516 26.2969 18.6897 26.4698C18.7418 26.6442 19.0166 26.842 19.224 26.8779C19.7501 26.9613 20.0176 26.9613 20.2066 26.5025C20.4351 25.9353 20.5866 24.3605 20.6971 23.7105C20.722 23.4738 21.7361 22.9329 22.3245 22.8258C22.57 22.7671 23.1848 22.6769 23.4845 22.638C23.7703 22.5976 24.3191 22.3316 24.2941 21.7658C24.2662 21.4954 23.9511 21.2793 23.6616 21.2207C23.1677 21.0984 22.5734 21.2612 22.1829 21.3609C21.8202 21.4636 21.2999 21.8594 20.9636 21.7114C21.0397 21.2549 21.1657 20.8599 21.0623 20.3704ZM28.5124 21.2942C28.4587 20.3313 28.7489 19.9817 28.9239 19.254C29.1004 18.7799 29.222 18.4267 28.5214 18.3953C27.4157 18.3353 27.4305 19.266 27.2203 20.0604C27.1309 20.3748 26.9735 21.2028 26.7192 21.345C26.4804 21.4748 25.5211 21.3599 25.2214 21.3988C24.9312 21.4809 24.6653 21.7345 24.5957 21.9946C24.5012 22.224 24.5533 22.6659 24.8296 22.8498C25.2129 23.0871 26.2329 22.7579 26.5012 23.1521C26.3606 23.9538 26.2793 24.5928 26.1402 25.1132C26.0999 25.3623 25.8216 26.4029 25.7535 26.6491C25.7023 26.869 25.2701 28.0342 25.3302 28.2658C25.4072 28.4709 25.8396 28.6431 26.1503 28.6335C26.8567 28.6092 27.1027 27.0725 27.2499 26.6093C27.3209 26.3353 27.5728 25.2778 27.6299 25.0023C27.7068 24.6725 27.9697 23.1094 28.2576 22.9144C28.5317 22.718 29.6631 22.9355 30.1182 22.7581C30.4266 22.6356 30.6362 22.2494 30.5921 21.8647C30.5217 21.1957 28.8129 21.6495 28.5124 21.2942ZM37.3136 25.7667C37.7547 25.5878 38.2707 25.7687 38.81 25.7269C39.3215 25.6821 39.5214 24.7177 38.9168 24.443C38.2426 24.161 37.981 24.3728 37.5545 24.145C37.3697 23.7595 37.7153 22.0785 37.8428 21.6695C38.0537 21.0019 38.3987 19.729 39.0531 19.7978C39.4429 19.8388 39.4862 20.3642 39.5823 20.6558C39.6783 20.9475 39.7597 21.3783 40.0228 21.42C40.3328 21.5512 40.8179 21.4895 40.9717 21.0975C41.1109 20.8446 41.1196 20.2262 40.8982 19.6539C40.5999 18.8764 40.0274 18.2954 39.0448 18.4033C38.0343 18.5082 37.443 19.1781 36.9214 20.1228C36.4533 20.9604 36.2629 21.7006 36.0388 22.761C35.9663 23.049 35.9869 23.6564 35.8441 23.8103C35.669 24.0031 35.8309 23.9357 35.4396 23.9086C35.0761 23.8845 34.6504 24.0509 34.5596 24.3792C34.5017 24.528 34.4255 24.717 34.5985 24.9464C35.0346 25.4849 35.0221 25.202 35.6868 25.4408C35.7968 26.2689 35.3984 27.6488 35.5143 28.4211C35.5913 28.8938 36.6033 29.0424 36.8568 28.5059C37.1527 27.8332 37.0931 26.1236 37.3136 25.7667ZM42.7359 22.6484C42.6252 22.496 42.4112 22.389 42.2009 22.381C41.4461 22.3298 41.4213 22.834 41.1877 23.8511C40.9438 24.9657 40.7045 26.841 40.487 27.9725C40.4145 28.2605 40.3252 28.5748 40.3633 28.7478C40.4154 28.9222 40.6902 29.12 40.8976 29.1559C41.4237 29.2393 41.6912 29.2393 41.8802 28.7805C42.1087 28.2133 42.2602 26.6385 42.3707 25.9885C42.3956 25.7518 43.4097 25.2108 43.9981 25.1038C44.2436 25.0451 44.8584 24.9549 45.1581 24.916C45.4439 24.8756 45.9927 24.6095 45.9677 24.0438C45.9398 23.7734 45.6247 23.5573 45.3352 23.4987C44.8413 23.3764 44.247 23.5392 43.8565 23.6389C43.4937 23.7416 42.9735 24.1374 42.6371 23.9894C42.7133 23.5329 42.8393 23.1379 42.7359 22.6484ZM48.8282 23.2746C48.3754 23.2974 48.1365 23.4272 47.776 23.6427C47.203 24.0047 47.1173 24.1506 46.7444 24.6182C46.0366 25.4588 45.7152 27.0439 46.3463 28.1378C46.7062 28.598 47.4669 29.1284 48.1697 29.2726C49.0087 29.4594 49.6741 29.29 50.2397 28.9975C51.2289 28.4258 51.9821 27.421 51.9445 26.305C52.0762 24.5169 50.8852 23.1248 48.8282 23.2746ZM47.5163 26.7827C47.4693 25.8909 48.2737 24.6663 49.0402 24.6061C50.0339 24.5275 50.7595 25.6596 50.386 26.8028C50.1948 27.4162 49.5405 27.8823 49.0957 27.9623C48.1519 28.1024 47.556 27.4767 47.5163 26.7827ZM54.423 26.5373C54.368 26.1233 55.0895 24.2142 54.564 23.7226C54.424 23.5812 54.1052 23.5336 53.9433 23.6011C53.2985 23.843 53.2517 24.556 53.1272 25.472C53.057 25.8729 52.9552 26.4393 52.8366 27.0322C52.7026 27.6375 52.6213 28.2765 52.5298 28.7455C52.4141 29.3105 52.2903 29.8184 52.5652 30.0162C52.7081 30.1297 53.1829 30.1656 53.4189 30.0637C53.6841 29.9508 53.923 29.5536 54.1508 29.127C54.542 28.3517 54.9735 27.8621 55.4307 27.2626C55.6761 26.9365 55.893 26.4807 56.3041 26.4535C56.4903 27.0924 56.124 27.8986 55.9446 28.668C55.8721 28.956 55.7674 29.2829 55.7762 29.4668C55.8225 30.2318 56.7033 30.1555 57.1634 29.7956C57.7606 29.3375 58.3042 28.4515 58.7474 27.8505C58.8991 27.6131 59.0925 27.38 59.3717 27.2686C59.4106 27.8358 59.2326 28.3238 59.1118 28.8038C59.0078 29.2575 58.8122 29.9126 58.857 30.4241C58.9348 31.291 59.9592 31.1875 60.2574 30.6276C60.4149 30.3344 60.5188 29.6134 60.606 29.1861C60.699 28.7032 60.7795 28.2049 60.8835 27.7513C61.0431 27.036 61.5536 25.2597 60.9673 24.9447C60.2601 24.5747 59.6652 25.4131 59.3304 25.7862C59.123 26.0178 58.8248 26.3102 58.616 26.5557C58.4072 26.8012 58.1625 26.9867 57.75 27.2952C57.8765 25.9571 57.8909 24.2131 56.5082 24.6449C55.9696 24.8135 55.4495 25.4768 55.0978 25.8762C54.9073 26.0814 54.5864 26.4559 54.423 26.5373ZM68.2917 25.8834C68.151 25.8827 68.4527 24.8868 68.5838 24.3093C68.668 23.9099 68.9984 23.3112 68.7807 22.8378C68.6649 22.6004 68.3021 22.4356 67.9746 22.4716C67.3334 22.5449 67.2142 23.8134 67.0355 24.7097C66.8612 25.5641 66.6854 26.165 66.4812 27.1712C66.1604 28.6156 65.9414 29.226 65.6353 30.5312C65.4544 31.3146 65.3879 32.0818 65.9917 32.2298C66.8616 32.3916 66.9333 31.7093 67.0775 31.0066C67.3463 29.9227 67.3872 29.2654 67.7139 28.3002C67.8758 27.9653 68.1058 27.6517 68.3799 27.4552C68.6261 27.2559 68.9558 27.0653 69.4153 27.1136C69.63 27.3473 69.4075 28.9287 69.3863 29.2643C69.2158 30.7527 68.9463 31.9772 69.0731 32.2439C69.1999 32.5106 69.7994 32.7003 70.1394 32.4123C70.524 32.1008 70.5803 31.1636 70.6586 30.2849C70.7464 29.4495 70.9147 28.3833 70.9447 27.6966C70.99 26.7301 70.8154 25.7123 70.2159 25.5226C69.412 25.2691 69.0186 25.9317 68.2917 25.8834ZM73.5135 30.5428C73.8594 30.4665 74.4478 30.3594 74.8926 30.2795C75.5521 30.1658 75.8928 30.0045 76.5428 29.8476C76.9319 29.7618 77.2462 29.3162 77.2579 28.9374C77.2842 28.6867 77.1478 28.1093 77.0679 27.932C76.617 26.4628 75.5177 25.939 74.1035 26.269C73.529 26.3776 72.8454 26.8547 72.4454 27.4461C71.9354 28.0119 71.6901 28.873 71.8288 30.0982C72.0847 31.2794 72.4043 31.7213 73.4838 32.2993C74.1543 32.7498 75.5379 32.7122 76.3021 32.2717C76.5593 32.1017 76.6743 31.6774 76.4016 31.3249C75.9062 30.9491 75.4373 31.66 74.5249 31.367C73.9255 31.1773 73.5766 31.0139 73.5135 30.5428ZM73.7901 27.9113C74.7419 27.2934 75.5715 27.4369 75.8223 28.5331C75.7278 28.7625 75.2991 28.9567 74.9716 28.9927C74.474 29.0389 73.5954 29.2281 73.3492 29.16C73.2641 28.8977 73.3974 28.1656 73.7901 27.9113ZM80.1275 26.5784C80.0169 26.426 79.8029 26.319 79.5926 26.311C78.8378 26.2598 78.8129 26.764 78.5793 27.7812C78.3355 28.8958 78.0962 30.771 77.8787 31.9025C77.8062 32.1905 77.7169 32.5049 77.755 32.6778C77.807 32.8522 78.0819 33.05 78.2893 33.0859C78.8154 33.1693 79.0829 33.1693 79.2719 32.7105C79.5004 32.1433 79.6519 30.5685 79.7624 29.9185C79.7873 29.6818 80.8014 29.1409 81.3898 29.0338C81.6353 28.9751 82.2501 28.8849 82.5498 28.846C82.8356 28.8057 83.3844 28.5396 83.3594 27.9739C83.3315 27.7035 83.0164 27.4873 82.7269 27.4288C82.233 27.3065 81.6387 27.4692 81.2481 27.569C80.8854 27.6716 80.3652 28.0674 80.0288 27.9194C80.105 27.4629 80.2309 27.0679 80.1275 26.5784ZM85.1118 31.7618C85.4576 31.6855 86.046 31.5784 86.4908 31.4985C87.1503 31.3848 87.4911 31.2235 88.141 31.0666C88.5301 30.9808 88.8444 30.5352 88.8561 30.1564C88.8824 29.9058 88.746 29.3283 88.6661 29.151C88.2152 27.6818 87.116 27.1581 85.7017 27.488C85.1272 27.5966 84.4436 28.0737 84.0436 28.6652C83.5337 29.231 83.2883 30.092 83.427 31.3172C83.6829 32.4985 84.0025 32.9403 85.082 33.5183C85.7526 33.9689 87.1361 33.9313 87.9003 33.4907C88.1575 33.3207 88.2725 32.8964 87.9998 32.544C87.5044 32.1681 87.0355 32.879 86.1231 32.586C85.5237 32.3963 85.1749 32.233 85.1118 31.7618ZM85.3883 29.1303C86.3401 28.5124 87.1697 28.6559 87.4205 29.7521C87.326 29.9815 86.8973 30.1757 86.5698 30.2117C86.0722 30.2579 85.1936 30.4471 84.9474 30.379C84.8624 30.1167 84.9956 29.3846 85.3883 29.1303Z" fill="white"/>
</svg>
