<svg width="93" height="36" viewBox="0 0 93 36" fill="none" xmlns="http://www.w3.org/2000/svg">
<path d="M18.4151 5.89599C17.6544 5.90051 16.9334 6.06404 16.3678 6.62398C16.1465 6.85411 16.0125 7.45942 16.0023 7.82435C15.9826 8.41352 16.5191 8.93445 16.9559 9.33229C17.3165 9.65173 18.212 10.2386 18.0656 10.8285C17.1102 11.8824 16.6813 10.7393 15.8958 10.9805C15.7507 11.0216 15.5675 11.1572 15.5265 11.2795C15.3266 11.9765 15.5025 12.178 16.6581 12.5669C17.1477 12.731 17.9252 12.7001 18.3428 12.4765C18.9239 12.1716 19.4309 11.6336 19.5392 10.8708C19.6754 9.84335 18.8597 9.16638 18.3356 8.66084C18.2206 8.5502 17.5346 8.1121 17.6034 7.72517C17.6781 7.28256 18.1368 7.20407 18.8806 7.49341C19.1459 7.64799 19.7352 8.20262 20.0371 8.00912C20.1851 7.94021 20.5207 7.69394 20.5169 7.32754C20.5125 6.83437 20.006 6.42922 19.4725 6.14791C19.2058 6.00725 18.4861 5.88939 18.4151 5.89599ZM23.7836 6.46025C23.3307 6.48304 23.0919 6.61278 22.7314 6.82828C22.1584 7.19037 22.0727 7.33621 21.6997 7.80379C20.992 8.64441 20.6705 10.2295 21.3016 11.3235C21.6615 11.7836 22.4222 12.314 23.125 12.4583C23.9641 12.645 24.6294 12.4756 25.1951 12.1831C26.1843 11.6114 26.9375 10.6066 26.8999 9.49059C27.0315 7.70256 25.8405 6.31044 23.7836 6.46025ZM22.4717 9.96834C22.4247 9.07654 23.2291 7.85191 23.9956 7.7917C24.9892 7.71314 25.7149 8.84519 25.3413 9.9884C25.1502 10.6018 24.4959 11.0679 24.0511 11.1479C23.1072 11.288 22.5114 10.6623 22.4717 9.96834ZM29.8713 3.69343C28.8938 3.88631 28.8288 5.44204 28.6099 6.58743C28.295 8.24359 27.9977 9.46521 27.6228 11.1573C27.4829 11.8183 26.8611 13.583 27.3067 13.8973C27.6841 14.1903 28.3252 13.8495 28.5392 13.4215C28.6813 13.1408 28.9361 12.0555 29.0203 11.6561C29.4164 9.6284 29.828 7.85571 30.205 5.74154C30.361 4.92738 30.8767 3.50348 29.8713 3.69343ZM32.2009 8.0488C30.9954 7.86579 30.7758 8.88441 30.6074 9.95065C30.5496 10.3669 30.4347 11.3261 30.4406 11.8054C30.4576 12.8489 31.0872 13.4218 31.82 13.6818C33.8316 14.2311 34.7292 13.326 35.3401 11.7995C35.5671 11.2462 35.7165 10.6284 35.789 10.0729C35.8732 9.40609 35.9682 8.23361 35.5893 7.95447C35.3548 7.77497 34.6579 7.8425 34.5027 8.24849C34.343 8.69625 34.3219 9.83429 34.2018 10.4411C34.0517 11.1995 33.5412 12.441 32.9754 12.466C31.3223 12.6582 32.0555 10.3703 32.2825 9.28208C32.3835 8.85631 32.552 8.32501 32.2009 8.0488ZM40.302 8.35125C40.2483 7.38837 40.5384 7.03878 40.7135 6.31109C40.89 5.83694 41.0116 5.48372 40.311 5.45231C39.2052 5.3924 39.22 6.32305 39.0099 7.11743C38.9205 7.43181 38.7631 8.25989 38.5088 8.40209C38.27 8.53183 37.3107 8.41694 37.011 8.45582C36.7208 8.53794 36.4549 8.79153 36.3853 9.05168C36.2908 9.28106 36.3429 9.72293 36.6192 9.90681C37.0025 10.1442 38.0225 9.81499 38.2907 10.2092C38.1502 11.0109 38.0689 11.6499 37.9298 12.1702C37.8895 12.4194 37.6112 13.46 37.5431 13.7062C37.4918 13.926 37.0597 15.0913 37.1198 15.3228C37.1968 15.528 37.6292 15.7001 37.9399 15.6905C38.6463 15.6663 38.8922 14.1295 39.0395 13.6664C39.1105 13.3923 39.3624 12.3349 39.4195 12.0593C39.4964 11.7296 39.7592 10.1665 40.0472 9.97149C40.3212 9.77506 41.4527 9.99252 41.9077 9.81512C42.2162 9.69269 42.4257 9.30648 42.3817 8.92177C42.3113 8.25274 40.6025 8.70661 40.302 8.35125ZM44.5733 6.98424C44.1886 7.02826 43.812 7.39692 43.8099 7.81901C43.8056 8.66319 45.3203 8.58308 45.3956 7.73229C45.4344 7.22959 45.0709 6.93799 44.5733 6.98424ZM44.1992 9.33803C43.5251 9.32348 43.2357 10.0673 43.0636 10.7672C42.8557 11.6744 42.625 12.6637 42.4126 13.6127C42.2859 14.1484 42.1021 14.6921 42.3139 14.9537C42.6115 15.3369 43.504 15.1492 43.7399 14.7798C43.9099 14.5021 43.95 13.718 44.0306 13.2197C44.166 12.333 44.3886 11.554 44.6252 10.7764C44.7468 10.4232 44.9087 10.0883 44.8859 9.9029C44.8544 9.53358 44.3971 9.33067 44.1992 9.33803ZM48.163 9.02263C47.7101 9.04541 47.4712 9.17515 47.1107 9.39065C46.5378 9.75274 46.452 9.89858 46.0791 10.3662C45.3714 11.2068 45.0499 12.7919 45.681 13.8858C46.0409 14.346 46.8016 14.8764 47.5044 15.0206C48.3435 15.2074 49.0088 15.038 49.5745 14.7455C50.5637 14.1738 51.3168 13.169 51.2793 12.053C51.4109 10.2649 50.2199 8.87281 48.163 9.02263ZM46.8511 12.5307C46.8041 11.6389 47.6085 10.4143 48.375 10.3541C49.3686 10.2755 50.0943 11.4076 49.7207 12.5508C49.5296 13.1642 48.8752 13.6303 48.4304 13.7103C47.4866 13.8504 46.8908 13.2247 46.8511 12.5307ZM53.8728 12.3959C53.7869 11.4719 54.4572 9.78271 53.3213 9.87449C52.6677 9.93248 52.6056 10.9254 52.4943 11.7161C52.3486 12.7003 52.1201 13.535 51.9202 14.4994C51.7306 15.3663 51.4684 16.2537 52.4928 16.1503C52.8761 16.1202 53.4628 14.9571 53.7434 14.5643C54.2343 13.912 54.1354 13.9157 54.9281 13.0699C55.2476 12.7094 55.5816 12.2095 56.0191 12.1992C56.0368 12.8345 55.9262 13.2171 55.7724 13.8766C55.6033 14.5486 55.4561 15.2792 55.4262 15.9659C55.6937 16.5008 56.6639 16.3775 56.8947 15.9231C56.9665 15.7758 56.9459 15.4358 56.9722 15.1852C57.093 14.1703 57.6079 12.6196 57.6253 11.6501C57.6304 11.2002 57.4618 10.6616 57.3049 10.5466C56.8 10.1275 56.2174 10.4463 55.8276 10.6728C55.3162 10.9851 54.8795 11.3897 54.5249 11.8169C54.3469 12.0375 54.1483 12.1856 53.8728 12.3959ZM64.7941 14.4729C65.2352 14.294 65.7511 14.475 66.2905 14.4331C66.802 14.3883 67.0019 13.4239 66.3973 13.1492C65.723 12.8672 65.4615 13.079 65.035 12.8512C64.8502 12.4658 65.1958 10.7847 65.3233 10.3758C65.5342 9.70817 65.8792 8.43525 66.5336 8.50403C66.9234 8.54501 66.9667 9.07041 67.0628 9.36205C67.1588 9.65369 67.2402 10.0846 67.5033 10.1263C67.8133 10.2574 68.2984 10.1958 68.4522 9.80371C68.5914 9.55087 68.6001 8.93239 68.3787 8.36012C68.0803 7.58267 67.5079 7.00165 66.5253 7.10953C65.5148 7.21448 64.9235 7.88434 64.4019 8.829C63.9338 9.66665 63.7434 10.4068 63.5193 11.4672C63.4468 11.7552 63.4674 12.3627 63.3246 12.5166C63.1495 12.7093 63.3114 12.6419 62.9201 12.6148C62.5566 12.5907 62.1309 12.7571 62.0401 13.0854C61.9822 13.2342 61.906 13.4233 62.079 13.6526C62.5151 14.1911 62.5026 13.9083 63.1673 14.1471C63.2773 14.9751 62.8789 16.355 62.9948 17.1274C63.0718 17.6 64.0838 17.7486 64.3373 17.2122C64.6332 16.5394 64.5736 14.8298 64.7941 14.4729ZM70.5028 11.3706C70.0499 11.3934 69.8111 11.5232 69.4506 11.7387C68.8776 12.1008 68.7919 12.2466 68.419 12.7142C67.7112 13.5548 67.3898 15.1399 68.0209 16.2338C68.3807 16.694 69.1415 17.2244 69.8442 17.3687C70.6833 17.5554 71.3487 17.386 71.9143 17.0935C72.9035 16.5218 73.6567 15.517 73.6191 14.401C73.7507 12.6129 72.5597 11.2208 70.5028 11.3706ZM69.1909 14.8787C69.1439 13.9869 69.9483 12.7623 70.7148 12.7021C71.7085 12.6235 72.4341 13.7556 72.0606 14.8988C71.8694 15.5122 71.2151 15.9783 70.7703 16.0583C69.8265 16.1984 69.2306 15.5727 69.1909 14.8787ZM76.4438 12.0091C76.3331 11.8567 76.1191 11.7498 75.9088 11.7417C75.154 11.6906 75.1292 12.1947 74.8956 13.2119C74.6517 14.3265 74.4124 16.2018 74.1949 17.3332C74.1224 17.6212 74.0331 17.9356 74.0712 18.1085C74.1233 18.2829 74.3981 18.4808 74.6055 18.5166C75.1316 18.6001 75.3991 18.6 75.5881 18.1413C75.8166 17.5741 75.9681 15.9993 76.0786 15.3493C76.1035 15.1126 77.1176 14.5716 77.706 14.4645C77.9515 14.4059 78.5663 14.3156 78.866 14.2767C79.1518 14.2364 79.7006 13.9703 79.6756 13.4046C79.6477 13.1342 79.3326 12.9181 79.0431 12.8595C78.5492 12.7372 77.9549 12.9 77.5644 12.9997C77.2017 13.1023 76.6814 13.4981 76.3451 13.3502C76.4212 12.8936 76.5472 12.4986 76.4438 12.0091ZM5.1917 26.2835C5.83146 26.4915 6.25204 26.2401 6.39705 25.6641C6.66435 24.5941 6.72932 23.0384 6.91889 21.6365C7.09534 20.6275 7.34796 19.4293 7.54419 18.366C7.7126 17.5672 8.17989 16.0678 7.48151 15.8818C7.26605 15.7888 6.7978 15.824 6.68131 15.9948C6.28645 16.6712 6.39888 18.682 5.76727 19.0661C4.87618 18.9724 4.08477 19.0019 3.33517 19.3032C2.65665 19.5979 2.15695 20.0662 1.77087 20.6591C1.4551 21.1186 1.21707 21.91 1.3359 22.6545C1.45766 23.3712 2.12388 24.131 2.70139 24.5295C3.33312 24.9479 4.07545 24.9837 4.82367 25.2312C4.97394 25.5426 4.88756 26.0966 5.1917 26.2835ZM5.36107 22.2611C5.27394 22.6884 5.1942 23.5809 5.02278 23.8726C4.35228 23.957 3.38417 23.3907 3.03601 22.8192C2.46135 21.8578 3.287 20.565 4.32757 20.5759C4.97389 20.5875 5.32562 20.4555 5.50666 20.742C5.57339 21.0447 5.44967 21.82 5.36107 22.2611ZM9.94688 17.422C9.56217 17.466 9.18558 17.8347 9.18344 18.2567C9.17918 19.1009 10.6939 19.0208 10.7692 18.17C10.808 17.6673 10.4444 17.3757 9.94688 17.422ZM9.5728 19.7758C8.89862 19.7612 8.60929 20.505 8.43719 21.2049C8.22922 22.1121 7.99855 23.1014 7.78618 24.0504C7.6595 24.5861 7.47565 25.1299 7.68747 25.3915C7.98504 25.7747 8.87756 25.5869 9.11346 25.2176C9.28342 24.9398 9.3236 24.1557 9.40413 23.6574C9.53956 22.7707 9.76221 21.9917 9.99878 21.2142C10.1204 20.8609 10.2823 20.526 10.2595 20.3406C10.2279 19.9713 9.77065 19.7684 9.5728 19.7758ZM13.634 19.4706C12.8734 19.4751 12.1523 19.6386 11.5867 20.1986C11.3654 20.4287 11.2314 21.034 11.2212 21.399C11.2015 21.9881 11.738 22.5091 12.1748 22.9069C12.5354 23.2263 13.431 23.8132 13.2845 24.4031C12.3291 25.457 11.9002 24.3139 11.1147 24.5551C10.9696 24.5962 10.7865 24.7318 10.7454 24.8542C10.5455 25.5511 10.7214 25.7526 11.8771 26.1415C12.3666 26.3056 13.1441 26.2747 13.5618 26.0511C14.1428 25.7462 14.6498 25.2082 14.7582 24.4454C14.8943 23.418 14.0786 22.741 13.5546 22.2354C13.4395 22.1248 12.7535 21.6867 12.8224 21.2998C12.897 20.8572 13.3557 20.7787 14.0996 21.068C14.3649 21.2226 14.9541 21.7772 15.256 21.5837C15.404 21.5148 15.7396 21.2685 15.7359 20.9021C15.7314 20.409 15.225 20.0038 14.6915 19.7225C14.4247 19.5819 13.7051 19.464 13.634 19.4706ZM21.2465 25.6059C21.0097 24.7786 20.3487 25.1737 19.5434 25.2017C18.4552 25.2422 17.8484 24.5871 17.6782 23.795C17.5206 23.0183 18.4877 22.1205 19.5033 22.1005C19.8837 22.0983 20.245 22.277 20.7271 22.2432C21.1089 22.227 21.5053 21.8042 21.4371 21.248C21.363 20.7475 19.9457 20.5704 19.4943 20.5792C18.2837 20.5787 17.2374 21.1585 16.6096 22.1765C16.3114 22.7364 16.0661 23.5974 16.1937 24.2584C16.5463 25.5905 17.4588 26.4185 18.89 26.597C20.1819 26.761 21.4532 26.3174 21.2465 25.6059ZM25.0532 20.6708C24.6003 20.6936 24.3614 20.8233 24.0009 21.0388C23.428 21.4009 23.3422 21.5468 22.9693 22.0143C22.2616 22.855 21.9401 24.4401 22.5712 25.534C22.9311 25.9942 23.6918 26.5246 24.3946 26.6688C25.2337 26.8556 25.899 26.6862 26.4647 26.3937C27.4539 25.822 28.207 24.8172 28.1695 23.7011C28.3011 21.9131 27.1101 20.521 25.0532 20.6708ZM23.7413 24.1789C23.6943 23.2871 24.4987 22.0625 25.2652 22.0023C26.2588 21.9237 26.9845 23.0557 26.6109 24.199C26.4198 24.8123 25.7654 25.2785 25.3207 25.3584C24.3768 25.4986 23.781 24.8728 23.7413 24.1789ZM30.9157 25.8057C30.8914 25.0993 30.7703 23.9745 30.675 23.2747C30.628 22.9178 30.5678 22.1513 30.4087 21.9235C30.1266 21.5278 29.4084 21.6635 29.1535 21.9464C29.089 22.0241 28.9176 22.3158 29.0144 22.7342C29.0218 23.467 29.5776 25.4117 29.7661 26.6985C29.8409 27.3257 29.8703 27.8497 30.2917 27.9925C30.9798 28.276 31.5975 27.3555 31.9425 26.885C33.0803 25.3012 33.5382 24.561 34.1148 23.7629C34.4291 23.3173 34.8694 23.0117 34.7264 22.3632C34.6289 21.818 34.0712 21.6327 33.6367 21.8827C33.1282 22.1671 32.9033 22.8332 32.5187 23.4122C31.9846 24.074 31.4711 25.0758 30.9157 25.8057ZM36.4542 26.5427C36.8001 26.4664 37.3885 26.3594 37.8333 26.2794C38.4928 26.1657 38.8335 26.0045 39.4835 25.8475C39.8726 25.7617 40.1869 25.3162 40.1986 24.9373C40.2249 24.6867 40.0885 24.1093 40.0086 23.9319C39.5577 22.4628 38.4584 21.939 37.0442 22.269C36.4697 22.3775 35.7861 22.8547 35.3861 23.4461C34.8761 24.0119 34.6308 24.873 34.7695 26.0982C35.0254 27.2794 35.345 27.7212 36.4245 28.2992C37.0951 28.7498 38.4786 28.7122 39.2428 28.2717C39.5 28.1016 39.615 27.6773 39.3423 27.3249C38.8469 26.949 38.378 27.6599 37.4656 27.3669C36.8662 27.1772 36.5173 27.0139 36.4542 26.5427ZM36.7308 23.9112C37.6826 23.2933 38.5122 23.4368 38.763 24.533C38.6685 24.7624 38.2398 24.9567 37.9123 24.9926C37.4147 25.0389 36.5361 25.2281 36.2899 25.16C36.2048 24.8976 36.3381 24.1655 36.7308 23.9112ZM43.0683 22.5783C42.9576 22.4259 42.7436 22.319 42.5333 22.311C41.7785 22.2598 41.7537 22.7639 41.5201 23.7811C41.2762 24.8957 41.0369 26.771 40.8194 27.9024C40.7469 28.1904 40.6576 28.5048 40.6957 28.6778C40.7478 28.8522 41.0226 29.05 41.23 29.0858C41.7561 29.1693 42.0236 29.1693 42.2126 28.7105C42.4411 28.1433 42.5926 26.5685 42.7031 25.9185C42.728 25.6818 43.7421 25.1408 44.3305 25.0337C44.576 24.9751 45.1908 24.8848 45.4905 24.846C45.7763 24.8056 46.3251 24.5395 46.3001 23.9738C46.2722 23.7034 45.9571 23.4873 45.6676 23.4287C45.1737 23.3064 44.5794 23.4692 44.1889 23.5689C43.8261 23.6716 43.3059 24.0673 42.9695 23.9194C43.0457 23.4628 43.1717 23.0678 43.0683 22.5783ZM51.7486 25.1095C52.2593 25.2055 52.91 24.6404 53.9718 24.5831C54.2876 24.6585 54.6849 25.4322 54.2871 25.8691C54.035 26.1241 52.8464 25.9147 52.1422 26.0519C51.7392 26.1362 51.2211 26.3774 51.0057 26.5518C50.6672 26.8259 50.254 27.2752 50.3296 28.0292C50.3377 28.3538 50.5854 28.6755 50.8126 28.9246C51.3565 29.6434 51.9567 29.9599 52.7445 30.3665C52.971 30.4888 53.5316 30.6463 53.7727 30.6294C54.1112 30.6227 54.5259 30.1595 54.6526 29.8913C54.9544 29.1629 55.1742 28.4117 55.4122 27.6203C55.5982 26.9219 55.9124 25.9413 55.8529 25.0342C55.8176 24.2984 55.4145 23.5804 54.9323 23.3467C54.0756 23.0596 53.3626 23.2802 52.4386 23.6336C51.9726 23.7817 51.4157 23.9906 51.4268 24.5549C51.4422 24.8099 51.4943 24.9843 51.7486 25.1095ZM53.0599 27.2322C53.3259 27.2461 53.8623 27.2321 54.0272 27.4043C53.976 27.8916 53.8317 28.8619 53.3884 28.9279C52.7303 28.7602 51.7307 28.3595 51.8017 27.5505C52.0398 27.294 52.5278 27.2045 53.0599 27.2322ZM64.2513 24.9455C64.1977 23.9827 64.4878 23.6331 64.6628 22.9054C64.8394 22.4312 64.9609 22.078 64.2604 22.0466C63.1546 21.9867 63.1694 22.9173 62.9592 23.7117C62.8699 24.0261 62.7124 24.8542 62.4582 24.9964C62.2193 25.1261 61.2601 25.0112 60.9604 25.0501C60.6702 25.1322 60.4042 25.3858 60.3346 25.646C60.2402 25.8754 60.2922 26.3172 60.5685 26.5011C60.9518 26.7385 61.9718 26.4093 62.2401 26.8035C62.0995 27.6052 62.0183 28.2442 61.8791 28.7645C61.8389 29.0137 61.5606 30.0543 61.4925 30.3005C61.4412 30.5203 61.009 31.6856 61.0692 31.9171C61.1461 32.1223 61.5785 32.2944 61.8892 32.2848C62.5956 32.2605 62.8416 30.7238 62.9888 30.2607C63.0599 29.9866 63.3118 28.9292 63.3689 28.6536C63.4458 28.3238 63.7086 26.7608 63.9966 26.5658C64.2706 26.3694 65.4021 26.5868 65.8571 26.4094C66.1656 26.287 66.3751 25.9008 66.3311 25.5161C66.2606 24.847 64.5518 25.3009 64.2513 24.9455ZM68.7801 25.2808C68.6695 25.1284 68.4555 25.0214 68.2452 25.0134C67.4904 24.9622 67.4655 25.4664 67.2319 26.4835C66.9881 27.5981 66.7488 29.4734 66.5313 30.6049C66.4588 30.8929 66.3695 31.2073 66.4076 31.3802C66.4596 31.5546 66.7345 31.7524 66.9419 31.7883C67.468 31.8717 67.7355 31.8717 67.9245 31.4129C68.153 30.8457 68.3045 29.2709 68.415 28.6209C68.4399 28.3842 69.454 27.8432 70.0424 27.7362C70.2879 27.6775 70.9027 27.5873 71.2024 27.5484C71.4882 27.508 72.037 27.2419 72.012 26.6762C71.9841 26.4058 71.669 26.1897 71.3795 26.1311C70.8856 26.0088 70.2913 26.1716 69.9007 26.2713C69.538 26.374 69.0178 26.7698 68.6814 26.6218C68.7576 26.1653 68.8835 25.7703 68.7801 25.2808ZM73.7644 30.4642C74.1102 30.3879 74.6986 30.2808 75.1434 30.2009C75.8029 30.0872 76.1437 29.9259 76.7936 29.769C77.1827 29.6832 77.497 29.2376 77.5087 28.8588C77.535 28.6081 77.3986 28.0307 77.3187 27.8534C76.8678 26.3842 75.7686 25.8604 74.3543 26.1904C73.7798 26.299 73.0962 26.7761 72.6962 27.3675C72.1863 27.9333 71.9409 28.7944 72.0796 30.0196C72.3355 31.2008 72.6551 31.6427 73.7346 32.2207C74.4052 32.6712 75.7887 32.6336 76.5529 32.1931C76.8101 32.0231 76.9251 31.5988 76.6524 31.2463C76.157 30.8705 75.6881 31.5814 74.7757 31.2884C74.1763 31.0987 73.8275 30.9353 73.7644 30.4642ZM74.0409 27.8327C74.9927 27.2148 75.8223 27.3583 76.0731 28.4545C75.9786 28.6839 75.5499 28.8781 75.2224 28.9141C74.7248 28.9603 73.8462 29.1495 73.6 29.0814C73.515 28.8191 73.6482 28.087 74.0409 27.8327ZM80.1472 29.2346C80.0614 28.3106 80.7316 26.6214 79.5958 26.7132C78.9421 26.7712 78.88 27.7641 78.7687 28.5548C78.6231 29.539 78.3946 30.3737 78.1947 31.338C78.005 32.205 77.7428 33.0924 78.7672 32.9889C79.1505 32.9588 79.7373 31.7958 80.0179 31.403C80.5087 30.7507 80.4098 30.7544 81.2026 29.9086C81.522 29.548 81.8561 29.0482 82.2936 29.0379C82.3112 29.6732 82.2007 30.0558 82.0469 30.7153C81.8777 31.3873 81.7305 32.1179 81.7006 32.8045C81.9681 33.3394 82.9383 33.2162 83.1691 32.7618C83.2409 32.6145 83.2203 32.2745 83.2467 32.0239C83.3674 31.0089 83.8823 29.4583 83.8998 28.4888C83.9048 28.0388 83.7362 27.5003 83.5794 27.3852C83.0744 26.9662 82.4919 27.285 82.1021 27.5115C81.5906 27.8238 81.1539 28.2283 80.7993 28.6556C80.6213 28.8762 80.4227 29.0243 80.1472 29.2346ZM88.378 35.0267C89.0178 35.2347 89.4384 34.9833 89.5834 34.4073C89.8507 33.3374 89.9156 31.7816 90.1052 30.3798C90.2817 29.3707 90.5343 28.1725 90.7305 27.1092C90.8989 26.3105 91.3662 24.8111 90.6678 24.6251C90.4524 24.532 89.9841 24.5673 89.8676 24.738C89.4728 25.4145 89.5852 27.4252 88.9536 27.8093C88.0625 27.7157 87.2711 27.7451 86.5215 28.0464C85.843 28.3411 85.3433 28.8094 84.9572 29.4023C84.6414 29.8618 84.4034 30.6533 84.5222 31.3978C84.644 32.1144 85.3102 32.8742 85.8877 33.2728C86.5194 33.6911 87.2618 33.7269 88.01 33.9745C88.1603 34.2859 88.0739 34.8399 88.378 35.0267ZM88.5474 31.0044C88.4603 31.4316 88.3805 32.3242 88.2091 32.6158C87.5386 32.7002 86.5705 32.1339 86.2223 31.5624C85.6477 30.6011 86.4733 29.3083 87.5139 29.3191C88.1602 29.3307 88.5119 29.1988 88.693 29.4853C88.7597 29.7879 88.636 30.5632 88.5474 31.0044Z" fill="black"/>
</svg>
