<svg width="76" height="34" viewBox="0 0 76 34" fill="none" xmlns="http://www.w3.org/2000/svg">
<path d="M6.18736 5.79539C5.71242 5.22462 5.65513 4.43028 5.36554 3.5693C5.24751 3.21904 5.10602 2.82409 4.95207 2.41375C4.87802 2.18073 4.70203 1.4443 4.5342 1.29996C3.9904 0.848649 3.0562 1.56693 2.99766 2.12387C2.964 2.4441 3.15312 2.78775 3.28508 3.13947C3.40604 3.46188 3.54899 3.84291 3.6465 4.12063C3.86057 4.76252 4.24612 5.3802 4.41404 6.05948C4.50715 6.37896 4.71458 6.6823 4.80769 7.00179C4.95655 7.59459 4.88701 8.12222 4.76476 8.88361C4.66228 9.59077 3.99718 11.365 4.83479 11.5656C5.30379 11.6571 5.71338 11.3764 5.83572 11.15C5.89505 10.9873 5.98951 10.4904 6.04662 10.2149C6.15646 9.70558 6.25752 9.27982 6.32559 8.76612C6.38049 8.37773 6.47272 7.76803 6.57014 7.5108C6.65218 7.26604 6.85952 7.03444 7.06979 6.775C7.23537 6.53901 7.39948 6.31695 7.57751 6.09635C8.46768 4.99336 8.92782 4.63348 9.89129 3.63673C10.0972 3.41906 10.8284 2.8906 10.7294 2.35934C10.6348 1.78631 9.91738 1.7813 9.67558 1.93889C9.56934 2.01218 9.30559 2.37862 9.17664 2.53399C9.02938 2.72967 8.84035 2.92096 8.69894 3.06095C8.11061 3.70297 7.62998 4.25777 7.0695 4.90271C6.79768 5.21199 6.58377 5.63998 6.18736 5.79539ZM11.2701 5.09083C10.8172 5.11361 10.5784 5.24336 10.2179 5.45885C9.64489 5.82094 9.55918 5.96678 9.18626 6.43436C8.47851 7.27499 8.15706 8.86007 8.78817 9.95403C9.14805 10.4142 9.90877 10.9446 10.6115 11.0888C11.4506 11.2756 12.116 11.1062 12.6816 10.8137C13.6708 10.242 14.424 9.23721 14.3864 8.12117C14.518 6.33313 13.327 4.94101 11.2701 5.09083ZM9.95823 8.59891C9.91119 7.70711 10.7156 6.48249 11.4821 6.42228C12.4758 6.34371 13.2014 7.47577 12.8279 8.61898C12.6367 9.23236 11.9824 9.69852 11.5376 9.77846C10.5938 9.91858 9.99791 9.29286 9.95823 8.59891ZM16.7913 6.37498C15.5858 6.19197 15.3661 7.21059 15.1978 8.27683C15.1399 8.69307 15.025 9.65231 15.031 10.1316C15.048 11.1751 15.6775 11.748 16.4104 12.008C18.422 12.5573 19.3195 11.6522 19.9304 10.1257C20.1575 9.57236 20.3069 8.95459 20.3794 8.39912C20.4635 7.73227 20.5586 6.55979 20.1797 6.28065C19.9452 6.10115 19.2483 6.16868 19.093 6.57467C18.9333 7.02243 18.9123 8.16046 18.7922 8.76724C18.6421 9.5257 18.1315 10.7671 17.5658 10.7921C15.9127 10.9844 16.6458 8.69649 16.8728 7.60826C16.9739 7.18249 17.1423 6.65119 16.7913 6.37498ZM26.8758 3.66224C26.2764 3.74001 25.8882 4.75499 26.5404 4.97839C27.0703 5.16077 27.8235 4.69094 27.7472 4.0776C27.7002 3.72074 27.3052 3.59476 26.8758 3.66224ZM26.4565 6.9826C25.9003 7.05083 25.822 7.662 25.707 8.0863C25.6587 8.2783 25.5042 9.07853 25.4507 9.453C25.3271 10.4958 25.1169 11.2902 24.8693 12.3059C24.5098 13.718 24.159 15.5816 23.1068 15.9496C22.7859 16.0566 21.7108 15.9718 21.6201 16.5676C21.5308 17.1494 22.2951 17.5113 22.9085 17.435C23.1217 17.4152 23.4676 17.3389 23.6881 17.2495C23.938 17.149 24.1937 16.9929 24.3446 16.8962C24.6773 16.6777 25.2715 15.98 25.4642 15.6202C25.6414 15.2728 25.719 14.8024 25.8802 14.3407C26.0062 13.9457 26.1072 13.5199 26.2068 13.1081C26.395 12.2551 26.6433 11.3661 26.7868 10.5366C26.8973 9.88659 27.0035 9.27835 27.1236 8.67158C27.1895 8.3125 27.3968 7.81344 27.2721 7.3921C27.19 7.10193 26.8287 6.92318 26.4565 6.9826ZM29.7084 7.73263C28.5029 7.54962 28.2833 8.56823 28.1149 9.63448C28.0571 10.0507 27.9422 11.01 27.9481 11.4892C27.9651 12.5327 28.5947 13.1056 29.3275 13.3657C31.3391 13.9149 32.2366 13.0098 32.8476 11.4833C33.0746 10.93 33.224 10.3122 33.2965 9.75677C33.3807 9.08991 33.4757 7.91743 33.0968 7.6383C32.8623 7.4588 32.1654 7.52632 32.0101 7.93232C31.8505 8.38008 31.8294 9.51811 31.7093 10.1249C31.5592 10.8833 31.0487 12.1248 30.4829 12.1498C28.8298 12.342 29.563 10.0541 29.7899 8.9659C29.891 8.54014 30.0595 8.00883 29.7084 7.73263ZM36.7395 7.76777C35.9789 7.77229 35.2579 7.93581 34.6922 8.49576C34.471 8.72589 34.337 9.3312 34.3268 9.69613C34.3071 10.2853 34.8435 10.8062 35.2804 11.2041C35.6409 11.5235 36.5365 12.1103 36.39 12.7003C35.4346 13.7542 35.0058 12.6111 34.2203 12.8523C34.0752 12.8933 33.892 13.0289 33.851 13.1513C33.651 13.8482 33.8269 14.0497 34.9826 14.4387C35.4721 14.6027 36.2496 14.5718 36.6673 14.3483C37.2484 14.0433 37.7554 13.5054 37.8637 12.7425C37.9998 11.7151 37.1841 11.0382 36.6601 10.5326C36.545 10.422 35.8591 9.98388 35.9279 9.59695C36.0026 9.15433 36.4613 9.07585 37.2051 9.36519C37.4704 9.51977 38.0597 10.0744 38.3615 9.88089C38.5096 9.81199 38.8451 9.56571 38.8414 9.19932C38.8369 8.70615 38.3305 8.30099 37.797 8.01969C37.5302 7.87903 36.8106 7.76116 36.7395 7.76777ZM43.2754 8.60957C43.2218 7.64669 43.5119 7.2971 43.687 6.56941C43.8635 6.09526 43.9851 5.74204 43.2845 5.71064C42.1787 5.65072 42.1935 6.58137 41.9833 7.37575C41.894 7.69013 41.7366 8.51821 41.4823 8.66042C41.2434 8.79016 40.2842 8.67526 39.9845 8.71414C39.6943 8.79626 39.4283 9.04985 39.3588 9.31C39.2643 9.53938 39.3164 9.98125 39.5927 10.1651C39.976 10.4025 40.996 10.0733 41.2642 10.4675C41.1236 11.2692 41.0424 11.9082 40.9033 12.4285C40.863 12.6777 40.5847 13.7183 40.5166 13.9645C40.4653 14.1844 40.0332 15.3496 40.0933 15.5811C40.1703 15.7863 40.6026 15.9584 40.9133 15.9489C41.6197 15.9246 41.8657 14.3879 42.0129 13.9247C42.084 13.6506 42.3359 12.5932 42.393 12.3176C42.4699 11.9879 42.7327 10.4248 43.0207 10.2298C43.2947 10.0334 44.4262 10.2508 44.8812 10.0734C45.1897 9.95101 45.3992 9.5648 45.3552 9.18009C45.2847 8.51106 43.5759 8.96493 43.2754 8.60957ZM51.4075 12.0826C51.3216 11.1586 51.9918 9.46939 50.856 9.56117C50.2024 9.61916 50.1403 10.6121 50.029 11.4028C49.8833 12.387 49.6548 13.2217 49.4549 14.1861C49.2653 15.053 49.0031 15.9404 50.0275 15.8369C50.4107 15.8068 50.9975 14.6438 51.2781 14.251C51.769 13.5987 51.6701 13.6024 52.4628 12.7566C52.7823 12.396 53.1163 11.8962 53.5538 11.8859C53.5715 12.5212 53.4609 12.9038 53.3071 13.5633C53.138 14.2353 52.9908 14.9659 52.9608 15.6526C53.2284 16.1874 54.1986 16.0642 54.4294 15.6098C54.5011 15.4625 54.4806 15.1225 54.5069 14.8719C54.6277 13.8569 55.1426 12.3063 55.16 11.3368C55.1651 10.8868 54.9964 10.3483 54.8396 10.2332C54.3346 9.81417 53.7521 10.133 53.3623 10.3595C52.8509 10.6718 52.4142 11.0763 52.0596 11.5036C51.8816 11.7242 51.683 11.8723 51.4075 12.0826ZM57.6834 14.6427C58.0293 14.5664 58.6177 14.4593 59.0625 14.3794C59.722 14.2657 60.0627 14.1044 60.7127 13.9475C61.1018 13.8617 61.4161 13.4161 61.4277 13.0373C61.4541 12.7866 61.3177 12.2092 61.2378 12.0319C60.7869 10.5627 59.6876 10.0389 58.2734 10.3689C57.6989 10.4775 57.0152 10.9546 56.6152 11.546C56.1053 12.1118 55.8599 12.9729 55.9986 14.1981C56.2546 15.3793 56.5741 15.8212 57.6536 16.3992C58.3242 16.8497 59.7077 16.8121 60.472 16.3716C60.7291 16.2016 60.8441 15.7773 60.5715 15.4248C60.076 15.049 59.6072 15.7599 58.6948 15.4669C58.0953 15.2772 57.7465 15.1138 57.6834 14.6427ZM57.96 12.0112C58.9118 11.3933 59.7413 11.5368 59.9921 12.633C59.8976 12.8624 59.469 13.0566 59.1414 13.0926C58.6439 13.1388 57.7653 13.328 57.519 13.2599C57.434 12.9976 57.5672 12.2655 57.96 12.0112ZM63.9244 15.2986C64.2703 15.2224 64.8587 15.1153 65.3035 15.0353C65.963 14.9216 66.3037 14.7604 66.9537 14.6035C67.3428 14.5177 67.6571 14.0721 67.6687 13.6932C67.6951 13.4426 67.5587 12.8652 67.4788 12.6878C67.0279 11.2187 65.9286 10.6949 64.5144 11.0249C63.9399 11.1334 63.2563 11.6106 62.8562 12.202C62.3463 12.7678 62.101 13.6289 62.2397 14.8541C62.4956 16.0353 62.8151 16.4771 63.8946 17.0551C64.5652 17.5057 65.9487 17.4681 66.713 17.0276C66.9701 16.8575 67.0851 16.4332 66.8125 16.0808C66.317 15.7049 65.8482 16.4158 64.9358 16.1229C64.3363 15.9332 63.9875 15.7698 63.9244 15.2986ZM64.201 12.6671C65.1528 12.0492 65.9823 12.1927 66.2331 13.2889C66.1386 13.5183 65.71 13.7126 65.3824 13.7485C64.8849 13.7948 64.0063 13.984 63.7601 13.9159C63.675 13.6535 63.8083 12.9215 64.201 12.6671ZM72.1203 19.1866C72.7601 19.3946 73.1806 19.1432 73.3256 18.5672C73.5929 17.4973 73.6579 15.9416 73.8475 14.5397C74.0239 13.5306 74.2766 12.3325 74.4728 11.2691C74.6412 10.4704 75.1085 8.97101 74.4101 8.78499C74.1946 8.69196 73.7264 8.72721 73.6099 8.89796C73.215 9.5744 73.3275 11.5852 72.6959 11.9692C71.8048 11.8756 71.0134 11.905 70.2638 12.2063C69.5852 12.501 69.0856 12.9693 68.6995 13.5622C68.3837 14.0217 68.1457 14.8132 68.2645 15.5577C68.3863 16.2744 69.0525 17.0342 69.63 17.4327C70.2617 17.851 71.004 17.8868 71.7523 18.1344C71.9025 18.4458 71.8162 18.9998 72.1203 19.1866ZM72.2897 15.1643C72.2025 15.5915 72.1228 16.4841 71.9514 16.7758C71.2809 16.8601 70.3128 16.2938 69.9646 15.7223C69.3899 14.761 70.2156 13.4682 71.2562 13.479C71.9025 13.4907 72.2542 13.3587 72.4353 13.6452C72.502 13.9478 72.3783 14.7231 72.2897 15.1643ZM6.2851 18.644C5.83223 18.6668 5.59336 18.7965 5.23286 19.012C4.65987 19.3741 4.57416 19.52 4.20124 19.9875C3.4935 20.8282 3.17205 22.4132 3.80316 23.5072C4.16303 23.9673 4.92375 24.4978 5.62652 24.642C6.4656 24.8287 7.13095 24.6594 7.69662 24.3669C8.6858 23.7952 9.43896 22.7904 9.40141 21.6743C9.53303 19.8863 8.34202 18.4942 6.2851 18.644ZM4.97321 22.1521C4.92618 21.2603 5.73059 20.0357 6.49708 19.9754C7.49074 19.8969 8.21638 21.0289 7.84284 22.1722C7.65167 22.7855 6.99736 23.2517 6.55257 23.3316C5.60875 23.4717 5.01289 22.846 4.97321 22.1521ZM11.9949 22.0173C11.909 21.0933 12.5793 19.4041 11.4435 19.4959C10.7898 19.5539 10.7277 20.5468 10.6164 21.3375C10.4708 22.3217 10.2423 23.1564 10.0424 24.1207C9.8527 24.9877 9.5905 25.8751 10.6149 25.7716C10.9982 25.7415 11.585 24.5785 11.8656 24.1857C12.3564 23.5334 12.2575 23.5371 13.0503 22.6913C13.3697 22.3307 13.7038 21.8309 14.1412 21.8206C14.1589 22.4559 14.0483 22.8385 13.8946 23.498C13.7254 24.17 13.5782 24.9006 13.5483 25.5872C13.8158 26.1221 14.786 25.9989 15.0168 25.5445C15.0886 25.3972 15.068 25.0572 15.0943 24.8066C15.2151 23.7916 15.73 22.241 15.7474 21.2715C15.7525 20.8215 15.5839 20.283 15.427 20.1679C14.9221 19.7489 14.3396 20.0677 13.9497 20.2942C13.4383 20.6065 13.0016 21.011 12.647 21.4383C12.469 21.6589 12.2704 21.807 11.9949 22.0173ZM18.2708 24.5774C18.6167 24.5011 19.2051 24.394 19.6499 24.3141C20.3094 24.2004 20.6501 24.0391 21.3001 23.8822C21.6892 23.7964 22.0035 23.3508 22.0152 22.9719C22.0415 22.7213 21.9051 22.1439 21.8252 21.9666C21.3743 20.4974 20.275 19.9736 18.8608 20.3036C18.2863 20.4121 17.6027 20.8893 17.2027 21.4807C16.6927 22.0465 16.4474 22.9076 16.5861 24.1328C16.842 25.314 17.1616 25.7559 18.2411 26.3339C18.9116 26.7844 20.2951 26.7468 21.0594 26.3063C21.3166 26.1363 21.4315 25.712 21.1589 25.3595C20.6635 24.9837 20.1946 25.6946 19.2822 25.4016C18.6828 25.2119 18.3339 25.0485 18.2708 24.5774ZM18.5474 21.9458C19.4992 21.328 20.3288 21.4714 20.5795 22.5677C20.4851 22.797 20.0564 22.9913 19.7288 23.0273C19.2313 23.0735 18.3527 23.2627 18.1065 23.1946C18.0214 22.9323 18.1547 22.2002 18.5474 21.9458ZM30.445 21.3381C30.3913 20.3753 30.6815 20.0257 30.8565 19.298C31.033 18.8238 31.1546 18.4706 30.454 18.4392C29.3482 18.3793 29.363 19.3099 29.1529 20.1043C29.0635 20.4187 28.9061 21.2468 28.6518 21.389C28.413 21.5187 27.4537 21.4038 27.154 21.4427C26.8638 21.5248 26.5979 21.7784 26.5283 22.0386C26.4338 22.268 26.4859 22.7098 26.7622 22.8937C27.1455 23.1311 28.1655 22.8019 28.4337 23.1961C28.2932 23.9978 28.2119 24.6368 28.0728 25.1571C28.0325 25.4063 27.7542 26.4469 27.6861 26.6931C27.6349 26.913 27.2027 28.0782 27.2628 28.3097C27.3398 28.5149 27.7722 28.687 28.0829 28.6774C28.7893 28.6532 29.0353 27.1164 29.1825 26.6533C29.2535 26.3792 29.5054 25.3218 29.5625 25.0462C29.6394 24.7165 29.9023 23.1534 30.1902 22.9584C30.4642 22.762 31.5957 22.9794 32.0508 22.802C32.3592 22.6796 32.5688 22.2934 32.5247 21.9087C32.4543 21.2396 30.7455 21.6935 30.445 21.3381ZM34.0954 23.1999C34.6062 23.2958 35.2568 22.7308 36.3186 22.6734C36.6345 22.7489 37.0318 23.5226 36.6339 23.9594C36.3819 24.2145 35.1933 24.0051 34.4891 24.1422C34.0861 24.2266 33.568 24.4677 33.3526 24.6422C33.0141 24.9163 32.6009 25.3656 32.6765 26.1196C32.6846 26.4442 32.9323 26.7659 33.1595 27.015C33.7034 27.7338 34.3036 28.0503 35.0914 28.4568C35.3178 28.5792 35.8784 28.7366 36.1195 28.7197C36.4581 28.7131 36.8728 28.2499 36.9995 27.9817C37.3013 27.2532 37.521 26.5021 37.7591 25.7106C37.9451 25.0123 38.2593 24.0317 38.1998 23.1245C38.1645 22.3888 37.7613 21.6707 37.2791 21.4371C36.4225 21.1499 35.7095 21.3706 34.7855 21.724C34.3194 21.8721 33.7626 22.081 33.7736 22.6453C33.7891 22.9003 33.8411 23.0747 34.0954 23.1999ZM35.4067 25.3226C35.6727 25.3365 36.2091 25.3225 36.374 25.4947C36.3228 25.982 36.1786 26.9522 35.7353 27.0183C35.0772 26.8505 34.0776 26.4499 34.1486 25.6409C34.3867 25.3843 34.8747 25.2949 35.4067 25.3226ZM41.0059 22.5608C40.9707 22.0925 41.0476 21.7628 41.1435 21.252C41.2673 20.7441 41.5192 19.9541 41.3543 19.5145C41.1483 18.9298 40.3232 19.012 40.0426 19.4048C39.7964 19.8716 39.6698 20.9422 39.557 21.4794C39.2861 22.7179 38.9448 24.0897 38.6937 25.5414C38.5817 26.2053 38.3056 27.0913 38.3108 27.7113C38.3124 28.2323 38.4583 28.8529 39.1193 28.9928C39.5451 29.0939 40.7197 28.7668 41.0714 28.6349C41.6854 28.4179 42.2372 28.1239 42.8021 27.7047C43.5377 27.1345 44.3723 26.2931 44.4446 25.2027C44.5089 24.0551 43.5862 23.3247 42.6167 23.0398C42.07 22.8838 41.3468 22.9344 41.0059 22.5608ZM40.067 25.8687C40.168 25.1755 40.3489 24.3921 40.7182 24.0931C41.6811 24.0394 42.9548 24.5112 42.9285 25.2967C42.9022 25.8148 42.1834 26.3587 41.7973 26.6841C41.3928 27.0498 40.1794 27.612 39.7617 27.5681L40.067 25.8687ZM50.6647 26.0817C50.5789 25.1576 51.2491 23.4684 50.1133 23.5602C49.4596 23.6182 49.3975 24.6112 49.2862 25.4019C49.1406 26.386 48.9121 27.2207 48.7122 28.1851C48.5225 29.052 48.2603 29.9395 49.2847 29.836C49.668 29.8059 50.2548 28.6429 50.5354 28.25C51.0262 27.5978 50.9273 27.6014 51.7201 26.7557C52.0395 26.3951 52.3736 25.8953 52.8111 25.8849C52.8287 26.5203 52.7181 26.9028 52.5644 27.5624C52.3952 28.2344 52.248 28.965 52.2181 29.6516C52.4856 30.1865 53.4558 30.0632 53.6866 29.6089C53.7584 29.4616 53.7378 29.1216 53.7642 28.8709C53.8849 27.856 54.3998 26.3053 54.4173 25.3358C54.4223 24.8859 54.2537 24.3473 54.0968 24.2323C53.5919 23.8132 53.0094 24.1321 52.6196 24.3586C52.1081 24.6708 51.6714 25.0754 51.3168 25.5027C51.1388 25.7233 50.9402 25.8713 50.6647 26.0817ZM57.872 24.066C57.4192 24.0888 57.1803 24.2185 56.8198 24.434C56.2468 24.7961 56.1611 24.942 55.7882 25.4095C55.0804 26.2502 54.759 27.8352 55.3901 28.9292C55.75 29.3893 56.5107 29.9198 57.2135 30.064C58.0525 30.2508 58.7179 30.0814 59.2836 29.7889C60.2727 29.2172 61.0259 28.2124 60.9884 27.0963C61.12 25.3083 59.929 23.9162 57.872 24.066ZM56.5602 27.5741C56.5131 26.6823 57.3175 25.4577 58.084 25.3975C59.0777 25.3189 59.8033 26.4509 59.4298 27.5942C59.2386 28.2075 58.5843 28.6737 58.1395 28.7536C57.1957 28.8938 56.5998 28.268 56.5602 27.5741ZM63.3866 29.6993C63.1821 29.3681 63.2237 28.3026 63.2426 27.5867C63.2674 27.0825 63.5852 25.666 63.435 25.3545C63.2612 24.9984 62.5292 24.8652 62.2141 25.184C61.7899 25.604 61.791 27.8705 61.8079 28.379C61.8542 29.1441 61.8661 30.1026 62.1351 30.6235C62.4935 31.3651 63.5385 31.3341 64.1379 30.9889C64.4537 30.7968 65.1592 29.8434 65.2384 29.8939C65.3454 29.9474 65.6753 31.0942 65.8915 31.314C66.3474 31.7983 67.1146 31.5974 67.7249 31.2814C69.1135 30.5264 70.4908 28.1373 70.6252 25.7865C70.3591 25.2377 69.5758 25.3243 69.3025 25.6475C69.0454 26.085 68.844 27.3308 68.5488 28.1303C68.2324 28.998 67.2316 30.216 66.9158 30.1406C66.5596 30.0469 66.5168 28.0434 66.1547 27.4704C65.9363 27.1378 65.564 27.1972 65.2709 27.3072C64.7903 27.5945 64.1743 29.5709 63.3866 29.6993Z" fill="black"/>
</svg>
