<svg width="1257" height="900" viewBox="0 0 1257 900" fill="none" xmlns="http://www.w3.org/2000/svg">
<line x1="56.5002" y1="6.14691e-09" x2="56.5001" y2="900" stroke="#2A2A2A" stroke-dasharray="16 24"/>
<line x1="136.5" y1="6.14691e-09" x2="136.5" y2="900" stroke="#2A2A2A" stroke-dasharray="16 24"/>
<line x1="216.501" y1="6.14691e-09" x2="216.5" y2="900" stroke="#2A2A2A" stroke-dasharray="16 24"/>
<line x1="296.501" y1="6.14691e-09" x2="296.501" y2="900" stroke="#2A2A2A" stroke-dasharray="16 24"/>
<line x1="376.501" y1="6.14691e-09" x2="376.501" y2="900" stroke="#2A2A2A" stroke-dasharray="16 24"/>
<line x1="456.501" y1="6.14691e-09" x2="456.501" y2="900" stroke="#2A2A2A" stroke-dasharray="16 24"/>
<line x1="536.501" y1="6.14691e-09" x2="536.501" y2="900" stroke="#2A2A2A" stroke-dasharray="16 24"/>
<line x1="616.501" y1="6.14691e-09" x2="616.501" y2="900" stroke="#2A2A2A" stroke-dasharray="16 24"/>
<line x1="696.501" y1="6.14691e-09" x2="696.501" y2="900" stroke="#2A2A2A" stroke-dasharray="16 24"/>
<line x1="776.501" y1="6.14691e-09" x2="776.501" y2="900" stroke="#2A2A2A" stroke-dasharray="16 24"/>
<line x1="856.502" y1="6.14691e-09" x2="856.501" y2="900" stroke="#2A2A2A" stroke-dasharray="16 24"/>
<line x1="936.502" y1="6.14691e-09" x2="936.502" y2="900" stroke="#2A2A2A" stroke-dasharray="16 24"/>
<line x1="1016.5" y1="6.14691e-09" x2="1016.5" y2="900" stroke="#2A2A2A" stroke-dasharray="16 24"/>
<line x1="1096.5" y1="6.14691e-09" x2="1096.5" y2="900" stroke="#2A2A2A" stroke-dasharray="16 24"/>
<line x1="1176.5" y1="6.14691e-09" x2="1176.5" y2="900" stroke="#2A2A2A" stroke-dasharray="16 24"/>
<line x1="1256.5" y1="6.14691e-09" x2="1256.5" y2="900" stroke="#2A2A2A" stroke-dasharray="16 24"/>
</svg>
